<svg width="15" height="13" viewBox="0 0 15 13" fill="none" xmlns="http://www.w3.org/2000/svg">
    <path d="M9.64286 4.33333V0H0V13H4.28571V10.4H5.35714V13H15V4.33333H9.64286ZM2.67857 11.2667H1.60714V10.4H2.67857V11.2667ZM2.67857 9.1H1.60714V8.23333H2.67857V9.1ZM2.67857 6.93333H1.60714V6.06667H2.67857V6.93333ZM2.67857 4.76667H1.60714V3.9H2.67857V4.76667ZM2.67857 2.6H1.60714V1.73333H2.67857V2.6ZM6.96429 1.73333H8.03571V2.6H6.96429V1.73333ZM5.35714 9.1H4.28571V8.23333H5.35714V9.1ZM5.35714 6.93333H4.28571V6.06667H5.35714V6.93333ZM5.35714 4.76667H4.28571V3.9H5.35714V4.76667ZM5.35714 2.6H4.28571V1.73333H5.35714V2.6ZM8.03571 11.2667H6.96429V10.4H8.03571V11.2667ZM8.03571 9.1H6.96429V8.23333H8.03571V9.1ZM8.03571 6.93333H6.96429V6.06667H8.03571V6.93333ZM8.03571 4.76667H6.96429V3.9H8.03571V4.76667ZM13.9286 12.1333H9.64286V11.2667H10.7143V10.4H9.64286V9.1H10.7143V8.23333H9.64286V6.93333H10.7143V6.06667H9.64286V5.2H13.9286V12.1333Z" fill="#21272A"/>
</svg>
