<svg width="11" height="12" viewBox="0 0 11 12" fill="none" xmlns="http://www.w3.org/2000/svg">
    <path d="M10.6827 0.96625V0.5C10.6827 0.367392 10.6262 0.240215 10.5256 0.146447C10.4249 0.0526785 10.2885 0 10.1462 0H0.585811C0.443523 0 0.307063 0.0526785 0.20645 0.146447C0.105837 0.240215 0.0493138 0.367392 0.0493138 0.5V0.96625C0.000358426 1.32156 -0.274261 3.80188 1.28762 5.48781C2.12153 6.38781 3.31155 6.88938 4.8295 6.98344V11H2.14702C2.00473 11 1.86827 11.0527 1.76766 11.1464C1.66704 11.2402 1.61052 11.3674 1.61052 11.5C1.61052 11.6326 1.66704 11.7598 1.76766 11.8536C1.86827 11.9473 2.00473 12 2.14702 12H8.58498C8.72727 12 8.86373 11.9473 8.96435 11.8536C9.06496 11.7598 9.12148 11.6326 9.12148 11.5C9.12148 11.3674 9.06496 11.2402 8.96435 11.1464C8.86373 11.0527 8.72727 11 8.58498 11H5.9025V6.98344C7.42045 6.88969 8.61047 6.38781 9.44439 5.48781C11.0063 3.80188 10.731 1.32156 10.6827 0.96625ZM1.11627 1.07281C1.12029 1.04872 1.12231 1.02438 1.12231 1H9.60969C9.60969 1.02438 9.61171 1.04872 9.61573 1.07281C9.67365 1.54701 9.67365 2.0258 9.61573 2.5H1.11828C1.06038 2.02584 1.0597 1.54712 1.11627 1.07281Z" fill="#21272A"/>
</svg>
